{"asset": {
        "generator": "COLLADA2GLTF",
        "version": "2.0"
    },
    "scene": 0,
    "scenes": [
        {
            "nodes": [
                0
            ]
        }
    ],
    "nodes": [
        {
            "children": [
                2,
                1
            ],
            "matrix": [
                0.009999999776482582,
                0.0,
                0.0,
                0.0,
                0.0,
                0.009999999776482582,
                0.0,
                0.0,
                0.0,
                0.0,
                0.009999999776482582,
                0.0,
                0.0,
                0.0,
                0.0,
                1.0
            ]
        },
        {
            "matrix": [
                -0.7289686799049377,
                0.0,
                -0.6845470666885376,
                0.0,
                -0.4252049028873444,
                0.7836934328079224,
                0.4527972936630249,
                0.0,
                0.5364750623703003,
                0.6211478114128113,
                -0.571287989616394,
                0.0,
                400.1130065917969,
                463.2640075683594,
                -431.0780334472656,
                1.0
            ],
            "camera": 0
        },
        {
            "mesh": 0
        }
    ],
    "cameras": [
        {
            "perspective": {
                "aspectRatio": 1.5,
                "yfov": 0.6605925559997559,
                "zfar": 10000.0,
                "znear": 1.0
            },
            "type": "perspective"
        }
    ],
    "meshes": [
        {
            "primitives": [
                {
                    "attributes": {
                        "NORMAL": 1,
                        "POSITION": 2,
                        "TEXCOORD_0": 3
                    },
                    "indices": 0,
                    "mode": 4,
                    "material": 0
                }
            ],
            "name": "LOD3spShape"
        }
    ],
  "accessors": [
    {
      "bufferView": 2,
      "componentType": 5126,
      "count": 771,
      "max": [
        1.4682613611221313,
        1.7554515600204468,
        2.0648558139801025
      ],
      "min": [
        -1.4682613611221313,
        -2.7045397758483887,
        -0.59796100854873657
      ],
      "type": "VEC3"
    },
    {
      "bufferView": 2,
      "byteOffset": 9252,
      "componentType": 5126,
      "count": 771,
      "max": [
        1,
        1,
        1
      ],
      "min": [
        -1,
        -1,
        -1
      ],
      "type": "VEC3"
    },
    {
      "bufferView": 3,
      "componentType": 5126,
      "count": 771,
      "max": [
        1,
        1,
        1,
        1
      ],
      "min": [
        -1,
        -1,
        -1,
        -1
      ],
      "type": "VEC4"
    },
    {
      "bufferView": 1,
      "componentType": 5126,
      "count": 771,
      "max": [
        0.99365234375,
        0.99365234375
      ],
      "min": [
        0.00537109375,
        0.00634765625
      ],
      "type": "VEC2"
    },
    {
      "bufferView": 0,
      "componentType": 5125,
      "count": 1980,
      "max": [
        770
      ],
      "min": [
        0
      ],
      "type": "SCALAR"
    }
  ],
  "asset": {
    "extras": {
      "author": "curly-brace (https://sketchfab.com/curly_brace)",
      "license": "CC-BY-SA-4.0 (http://creativecommons.org/licenses/by-sa/4.0/)",
      "source": "https://sketchfab.com/models/3c2622f11ab04cbc8d10812226752f28",
      "title": "Mini Tank"
    },
    "generator": "Sketchfab-3.18.7",
    "version": "2.0"
  },
  "bufferViews": [
    {
      "buffer": 0,
      "byteLength": 7920,
      "byteOffset": 0,
      "name": "floatBufferViews",
      "target": 34963
    },
    {
      "buffer": 0,
      "byteLength": 6168,
      "byteOffset": 7920,
      "byteStride": 8,
      "name": "floatBufferViews",
      "target": 34962
    },
    {
      "buffer": 0,
      "byteLength": 18504,
      "byteOffset": 14088,
      "byteStride": 12,
      "name": "floatBufferViews",
      "target": 34962
    },
    {
      "buffer": 0,
      "byteLength": 12336,
      "byteOffset": 32592,
      "byteStride": 16,
      "name": "floatBufferViews",
      "target": 34962
    }
  ],
  "buffers": [
    {
      "byteLength": 44928,
      "uri": "scene.bin"
    }
  ],
  "images": [
    {
      "uri": "Material_baseColor.png"
    }
  ],
  "materials": [
    {
      "doubleSided": true,
      "name": "Material",
      "pbrMetallicRoughness": {
        "baseColorFactor": [
          1,
          1,
          1,
          1
        ],
        "baseColorTexture": {
          "index": 0,
          "texCoord": 0
        },
        "metallicFactor": 0,
        "roughnessFactor": 0.59999999999999998
      }
    }
  ],
  "meshes": [
    {
      "name": "Cube.001_Material_0",
      "primitives": [
        {
          "attributes": {
            "NORMAL": 1,
            "POSITION": 0,
            "TANGENT": 2,
            "TEXCOORD_0": 3
          },
          "indices": 4,
          "material": 0,
          "mode": 4
        }
      ]
    }
  ],
  "nodes": [
    {
      "children": [
        1
      ],
      "name": "RootNode (gltf orientation matrix)",
      "rotation": [
        -0.70710678118654746,
        -0,
        -0,
        0.70710678118654757
      ]
    },
    {
      "children": [
        2
      ],
      "name": "RootNode (model correction matrix)"
    },
    {
      "children": [
        3
      ],
      "matrix": [
        1,
        0,
        0,
        0,
        0,
        0,
        1,
        0,
        0,
        -1,
        0,
        0,
        0,
        0,
        0,
        1
      ],
      "name": "3c1dea436e6f40618452b53cd949ceef.fbx"
    },
    {
      "children": [
        4
      ],
      "name": "RootNode"
    },
    {
      "children": [
        5
      ],
      "matrix": [
        100,
        0,
        0,
        0,
        0,
        -4.3711390063094768e-06,
        -99.999999999999901,
        0,
        0,
        99.999999999999901,
        -4.3711390063094768e-06,
        0,
        0,
        91.35858154296875,
        0,
        1
      ],
      "name": "Cube.001"
    },
    {
      "mesh": 0,
      "name": "Cube.001_Material_0"
    }
  ],
  "samplers": [
    {
      "magFilter": 9729,
      "minFilter": 9987,
      "wrapS": 10497,
      "wrapT": 10497
    }
  ],
  "scene": 0,
  "scenes": [
    {
      "name": "OSG_Scene",
      "nodes": [
        0
      ]
    }
  ],
  "textures": [
    {
      "sampler": 0,
      "source": 0
    }
  ]
}

